{
	"asset":{
		"generator":"Khronos glTF Blender I/O v4.4.55",
		"version":"2.0"
	},
	"extensionsUsed":[
		"KHR_materials_clearcoat",
		"KHR_materials_transmission",
		"KHR_materials_specular",
		"KHR_materials_ior"
	],
	"scene":0,
	"scenes":[
		{
			"name":"Scene",
			"nodes":[
				0,
				1,
				2,
				3,
				4
			]
		}
	],
	"nodes":[
		{
			"mesh":0,
			"name":"Layer:002",
			"rotation":[
				0.5,
				0.5,
				-0.5000001192092896,
				0.5
			],
			"scale":[
				-1.0000001192092896,
				-1.0000001192092896,
				-1.0000001192092896
			],
			"translation":[
				-0.00713782012462616,
				0.20506221055984497,
				-0.010882332921028137
			]
		},
		{
			"mesh":1,
			"name":"Lock Body.006",
			"rotation":[
				0.5000009536743164,
				0.4999990463256836,
				-0.4999990165233612,
				0.5000009536743164
			],
			"scale":[
				999.9999389648438,
				999.9999389648438,
				1000
			],
			"translation":[
				-0.7217127680778503,
				0.06694119423627853,
				0.03181866556406021
			]
		},
		{
			"mesh":1,
			"name":"Lock Body.007",
			"rotation":[
				-0.5000009536743164,
				-0.4999989867210388,
				-0.49999910593032837,
				0.5000009536743164
			],
			"scale":[
				-1000,
				-1000,
				-1000
			],
			"translation":[
				0.707400381565094,
				0.06694119423627853,
				0.03181866556406021
			]
		},
		{
			"mesh":2,
			"name":"Object119",
			"rotation":[
				-0.4999999403953552,
				-0.5000000596046448,
				-0.5000001788139343,
				0.4999999403953552
			],
			"scale":[
				1,
				1.017086386680603,
				0.9832357168197632
			],
			"translation":[
				-0.007265731692314148,
				0.557568371295929,
				-0.03571595996618271
			]
		},
		{
			"mesh":3,
			"name":"Object052",
			"rotation":[
				0.004394386429339647,
				0.9206041693687439,
				-0.3900810778141022,
				0.017475323751568794
			],
			"scale":[
				1000.0009765625,
				1000.0001220703125,
				1000.0000610351562
			],
			"translation":[
				0.055913046002388,
				-0.1196809932589531,
				0.06372350454330444
			]
		}
	],
	"materials":[
		{
			"doubleSided":true,
			"extensions":{
				"KHR_materials_clearcoat":{
					"clearcoatFactor":0.10000000149011612,
					"clearcoatRoughnessFactor":0.20000000298023224
				},
				"KHR_materials_specular":{
					"specularFactor":0.800000011920929
				}
			},
			"name":"Material #233",
			"pbrMetallicRoughness":{
				"baseColorFactor":[
					0.01032975409179926,
					0.010329831391572952,
					0.01032982673496008,
					1
				],
				"metallicFactor":0,
				"roughnessFactor":0.30000001192092896
			}
		},
		{
			"doubleSided":true,
			"name":"Material #290",
			"pbrMetallicRoughness":{
				"baseColorFactor":[
					0.1144346371293068,
					0.11443548649549484,
					0.11443544179201126,
					1
				],
				"roughnessFactor":0.3365086615085602
			}
		},
		{
			"alphaMode":"BLEND",
			"doubleSided":true,
			"extensions":{
				"KHR_materials_transmission":{
					"transmissionFactor":1
				},
				"KHR_materials_ior":{
					"ior":1.4500000476837158
				}
			},
			"name":"Material #245",
			"pbrMetallicRoughness":{
				"baseColorFactor":[
					1,
					1,
					1,
					0.17824773490428925
				],
				"metallicFactor":0,
				"roughnessFactor":0
			}
		}
	],
	"meshes":[
		{
			"name":"Layer:002",
			"primitives":[
				{
					"attributes":{
						"POSITION":0,
						"NORMAL":1
					},
					"indices":2,
					"material":0
				}
			]
		},
		{
			"name":"Lock Body.006",
			"primitives":[
				{
					"attributes":{
						"POSITION":3,
						"NORMAL":4,
						"TEXCOORD_0":5
					},
					"indices":6,
					"material":1
				}
			]
		},
		{
			"name":"Object119",
			"primitives":[
				{
					"attributes":{
						"POSITION":7,
						"NORMAL":8
					},
					"indices":9,
					"material":2
				}
			]
		},
		{
			"name":"Object052",
			"primitives":[
				{
					"attributes":{
						"POSITION":10,
						"NORMAL":11,
						"TEXCOORD_0":12
					},
					"indices":13,
					"material":1
				}
			]
		}
	],
	"accessors":[
		{
			"bufferView":0,
			"componentType":5126,
			"count":210792,
			"max":[
				0.04146817699074745,
				0.762005627155304,
				0.38100019097328186
			],
			"min":[
				-0.04146817699074745,
				-0.7620057463645935,
				-0.38100019097328186
			],
			"type":"VEC3"
		},
		{
			"bufferView":1,
			"componentType":5126,
			"count":210792,
			"type":"VEC3"
		},
		{
			"bufferView":2,
			"componentType":5125,
			"count":716436,
			"type":"SCALAR"
		},
		{
			"bufferView":3,
			"componentType":5126,
			"count":56156,
			"max":[
				7.130524863896426e-06,
				0.0014514867216348648,
				8.642772445455194e-05
			],
			"min":[
				-1.9759680071729235e-05,
				-2.237352600786835e-05,
				-5.3732153901364654e-05
			],
			"type":"VEC3"
		},
		{
			"bufferView":4,
			"componentType":5126,
			"count":56156,
			"type":"VEC3"
		},
		{
			"bufferView":5,
			"componentType":5126,
			"count":56156,
			"type":"VEC2"
		},
		{
			"bufferView":6,
			"componentType":5123,
			"count":313920,
			"type":"SCALAR"
		},
		{
			"bufferView":7,
			"componentType":5126,
			"count":72,
			"max":[
				0.028245458379387856,
				0.6797314882278442,
				-0.04166213423013687
			],
			"min":[
				-0.0066797868348658085,
				-0.6797328591346741,
				-0.6759158372879028
			],
			"type":"VEC3"
		},
		{
			"bufferView":8,
			"componentType":5126,
			"count":72,
			"type":"VEC3"
		},
		{
			"bufferView":9,
			"componentType":5123,
			"count":108,
			"type":"SCALAR"
		},
		{
			"bufferView":10,
			"componentType":5126,
			"count":34042,
			"max":[
				0.00011664791963994503,
				1.9411194443819113e-05,
				5.347101978259161e-05
			],
			"min":[
				-2.1067857232992537e-05,
				-2.327353104192298e-05,
				-7.455098511854885e-06
			],
			"type":"VEC3"
		},
		{
			"bufferView":11,
			"componentType":5126,
			"count":34042,
			"type":"VEC3"
		},
		{
			"bufferView":12,
			"componentType":5126,
			"count":34042,
			"type":"VEC2"
		},
		{
			"bufferView":13,
			"componentType":5123,
			"count":176412,
			"type":"SCALAR"
		}
	],
	"bufferViews":[
		{
			"buffer":0,
			"byteLength":2529504,
			"byteOffset":0,
			"target":34962
		},
		{
			"buffer":0,
			"byteLength":2529504,
			"byteOffset":2529504,
			"target":34962
		},
		{
			"buffer":0,
			"byteLength":2865744,
			"byteOffset":5059008,
			"target":34963
		},
		{
			"buffer":0,
			"byteLength":673872,
			"byteOffset":7924752,
			"target":34962
		},
		{
			"buffer":0,
			"byteLength":673872,
			"byteOffset":8598624,
			"target":34962
		},
		{
			"buffer":0,
			"byteLength":449248,
			"byteOffset":9272496,
			"target":34962
		},
		{
			"buffer":0,
			"byteLength":627840,
			"byteOffset":9721744,
			"target":34963
		},
		{
			"buffer":0,
			"byteLength":864,
			"byteOffset":10349584,
			"target":34962
		},
		{
			"buffer":0,
			"byteLength":864,
			"byteOffset":10350448,
			"target":34962
		},
		{
			"buffer":0,
			"byteLength":216,
			"byteOffset":10351312,
			"target":34963
		},
		{
			"buffer":0,
			"byteLength":408504,
			"byteOffset":10351528,
			"target":34962
		},
		{
			"buffer":0,
			"byteLength":408504,
			"byteOffset":10760032,
			"target":34962
		},
		{
			"buffer":0,
			"byteLength":272336,
			"byteOffset":11168536,
			"target":34962
		},
		{
			"buffer":0,
			"byteLength":352824,
			"byteOffset":11440872,
			"target":34963
		}
	],
	"buffers":[
		{
			"byteLength":11793696,
			"uri":"AwningWindow.bin"
		}
	]
}
