{
	"asset":{
		"generator":"Khronos glTF Blender I/O v4.4.55",
		"version":"2.0"
	},
	"extensionsUsed":[
		"KHR_materials_clearcoat",
		"KHR_materials_transmission",
		"KHR_materials_specular",
		"KHR_materials_ior"
	],
	"scene":0,
	"scenes":[
		{
			"name":"Scene",
			"nodes":[
				4,
				5,
				6
			]
		}
	],
	"nodes":[
		{
			"mesh":0,
			"name":"Handle Body.002",
			"rotation":[
				0,
				1,
				0,
				1.9470719792025193e-07
			],
			"scale":[
				1000,
				1000,
				1000
			],
			"translation":[
				0.09514057636260986,
				-0.7244616746902466,
				0.03945181518793106
			]
		},
		{
			"mesh":1,
			"name":"Object005",
			"rotation":[
				0.7071066498756409,
				0,
				0.70710688829422,
				4.523770655850967e-07
			],
			"scale":[
				1,
				1.017086148262024,
				0.9832355976104736
			],
			"translation":[
				-0.00017726421356201172,
				0.00012774765491485596,
				-0.028953708708286285
			]
		},
		{
			"mesh":2,
			"name":"Object054",
			"rotation":[
				0.7071066498756409,
				0,
				0.70710688829422,
				3.0626614488937776e-07
			],
			"scale":[
				1,
				1.017086148262024,
				0.9832355976104736
			],
			"translation":[
				1.6757228374481201,
				-0.2237912118434906,
				0.07243228703737259
			]
		},
		{
			"children":[
				0,
				1,
				2
			],
			"name":"Window",
			"translation":[
				-1.6757228374481201,
				0.2237912118434906,
				-0.07243228703737259
			]
		},
		{
			"children":[
				3
			],
			"name":"WindowParent"
		},
		{
			"name":"Group001",
			"rotation":[
				0,
				-0.7071068286895752,
				0,
				0.7071067094802856
			],
			"scale":[
				1,
				0.9879999756813049,
				1
			],
			"translation":[
				-1.5263539552688599,
				0.3045811951160431,
				-0.47447627782821655
			]
		},
		{
			"name":"Group004",
			"rotation":[
				0,
				1,
				0,
				1.6292068494294654e-07
			],
			"translation":[
				-1.5805821418762207,
				-0.4982472062110901,
				-0.03298047184944153
			]
		}
	],
	"materials":[
		{
			"doubleSided":true,
			"name":"Material #290",
			"pbrMetallicRoughness":{
				"baseColorFactor":[
					0.1144346371293068,
					0.11443548649549484,
					0.11443544179201126,
					1
				],
				"roughnessFactor":0.3365086615085602
			}
		},
		{
			"doubleSided":true,
			"extensions":{
				"KHR_materials_clearcoat":{
					"clearcoatFactor":0.10000000149011612,
					"clearcoatRoughnessFactor":0.20000000298023224
				},
				"KHR_materials_specular":{
					"specularFactor":0.800000011920929
				}
			},
			"name":"Material #233",
			"pbrMetallicRoughness":{
				"baseColorFactor":[
					0.01032975409179926,
					0.010329831391572952,
					0.01032982673496008,
					1
				],
				"metallicFactor":0,
				"roughnessFactor":0.30000001192092896
			}
		},
		{
			"alphaMode":"BLEND",
			"doubleSided":true,
			"extensions":{
				"KHR_materials_transmission":{
					"transmissionFactor":1
				},
				"KHR_materials_ior":{
					"ior":1.4500000476837158
				}
			},
			"name":"Material #245",
			"pbrMetallicRoughness":{
				"baseColorFactor":[
					1,
					1,
					1,
					0.17824773490428925
				],
				"metallicFactor":0,
				"roughnessFactor":0
			}
		}
	],
	"meshes":[
		{
			"name":"Handle Body.002",
			"primitives":[
				{
					"attributes":{
						"POSITION":0,
						"NORMAL":1,
						"TEXCOORD_0":2
					},
					"indices":3,
					"material":0
				}
			]
		},
		{
			"name":"Object005",
			"primitives":[
				{
					"attributes":{
						"POSITION":4,
						"NORMAL":5
					},
					"indices":6,
					"material":1
				}
			]
		},
		{
			"name":"Object054",
			"primitives":[
				{
					"attributes":{
						"POSITION":7,
						"NORMAL":8
					},
					"indices":9,
					"material":2
				}
			]
		}
	],
	"accessors":[
		{
			"bufferView":0,
			"componentType":5126,
			"count":80974,
			"max":[
				0.00044813178828917444,
				0.00022307167819235474,
				2.6716725187725388e-05
			],
			"min":[
				-6.88869331497699e-05,
				-2.1354129785322584e-05,
				-2.4152941477950662e-05
			],
			"type":"VEC3"
		},
		{
			"bufferView":1,
			"componentType":5126,
			"count":80974,
			"type":"VEC3"
		},
		{
			"bufferView":2,
			"componentType":5126,
			"count":80974,
			"type":"VEC2"
		},
		{
			"bufferView":3,
			"componentType":5125,
			"count":419676,
			"type":"SCALAR"
		},
		{
			"bufferView":4,
			"componentType":5126,
			"count":198651,
			"max":[
				0.0482853502035141,
				0.7493304014205933,
				0.38767746090888977
			],
			"min":[
				-0.03465104103088379,
				-0.7490792870521545,
				-0.38731649518013
			],
			"type":"VEC3"
		},
		{
			"bufferView":5,
			"componentType":5126,
			"count":198651,
			"type":"VEC3"
		},
		{
			"bufferView":6,
			"componentType":5125,
			"count":647784,
			"type":"SCALAR"
		},
		{
			"bufferView":7,
			"componentType":5126,
			"count":72,
			"max":[
				-0.08836816996335983,
				0.4595756530761719,
				-1.38734769821167
			],
			"min":[
				-0.12329340726137161,
				-0.8998885750770569,
				-2.021601438522339
			],
			"type":"VEC3"
		},
		{
			"bufferView":8,
			"componentType":5126,
			"count":72,
			"type":"VEC3"
		},
		{
			"bufferView":9,
			"componentType":5123,
			"count":108,
			"type":"SCALAR"
		}
	],
	"bufferViews":[
		{
			"buffer":0,
			"byteLength":971688,
			"byteOffset":0,
			"target":34962
		},
		{
			"buffer":0,
			"byteLength":971688,
			"byteOffset":971688,
			"target":34962
		},
		{
			"buffer":0,
			"byteLength":647792,
			"byteOffset":1943376,
			"target":34962
		},
		{
			"buffer":0,
			"byteLength":1678704,
			"byteOffset":2591168,
			"target":34963
		},
		{
			"buffer":0,
			"byteLength":2383812,
			"byteOffset":4269872,
			"target":34962
		},
		{
			"buffer":0,
			"byteLength":2383812,
			"byteOffset":6653684,
			"target":34962
		},
		{
			"buffer":0,
			"byteLength":2591136,
			"byteOffset":9037496,
			"target":34963
		},
		{
			"buffer":0,
			"byteLength":864,
			"byteOffset":11628632,
			"target":34962
		},
		{
			"buffer":0,
			"byteLength":864,
			"byteOffset":11629496,
			"target":34962
		},
		{
			"buffer":0,
			"byteLength":216,
			"byteOffset":11630360,
			"target":34963
		}
	],
	"buffers":[
		{
			"byteLength":11630576,
			"uri":"CasementWindow.bin"
		}
	]
}
