{
	"asset":{
		"generator":"Khronos glTF Blender I/O v4.4.55",
		"version":"2.0"
	},
	"extensionsUsed":[
		"KHR_materials_clearcoat",
		"KHR_materials_transmission",
		"KHR_materials_specular",
		"KHR_materials_ior"
	],
	"scene":0,
	"scenes":[
		{
			"name":"Scene",
			"nodes":[
				0,
				1,
				3,
				5
			]
		}
	],
	"nodes":[
		{
			"name":"Node_1",
			"rotation":[
				0,
				0.7071068286895752,
				0,
				0.7071067094802856
			],
			"translation":[
				-0.3952522575855255,
				0.22015008330345154,
				-0.14284658432006836
			]
		},
		{
			"name":"Node_5",
			"rotation":[
				0,
				0.7071068286895752,
				0,
				0.7071067094802856
			],
			"translation":[
				-0.3952522575855255,
				0.22015008330345154,
				-0.14284658432006836
			]
		},
		{
			"mesh":0,
			"name":"Object104",
			"scale":[
				0.0010000000474974513,
				0.0010000000474974513,
				0.0010000000474974513
			]
		},
		{
			"children":[
				2
			],
			"name":"Node_1.001",
			"rotation":[
				0,
				0.7071068286895752,
				0,
				0.7071067094802856
			],
			"translation":[
				-2.073244333267212,
				-0.37267377972602844,
				-0.2231576144695282
			]
		},
		{
			"mesh":1,
			"name":"Layer:067",
			"scale":[
				0.0010000000474974513,
				0.0010000000474974513,
				0.0010000000474974513
			]
		},
		{
			"children":[
				4
			],
			"name":"Node_3.001",
			"rotation":[
				0.7071068286895752,
				0,
				0.7071068286895752,
				4.2160821500658585e-09
			],
			"scale":[
				-1.0000001192092896,
				-1.000000238418579,
				-1.0000001192092896
			],
			"translation":[
				-1.3295352458953857,
				-0.3195872902870178,
				-0.17106258869171143
			]
		}
	],
	"materials":[
		{
			"alphaMode":"BLEND",
			"doubleSided":true,
			"extensions":{
				"KHR_materials_transmission":{
					"transmissionFactor":1
				},
				"KHR_materials_ior":{
					"ior":1.4500000476837158
				}
			},
			"name":"Material #245",
			"pbrMetallicRoughness":{
				"baseColorFactor":[
					1,
					1,
					1,
					0.17824773490428925
				],
				"metallicFactor":0,
				"roughnessFactor":0
			}
		},
		{
			"doubleSided":true,
			"extensions":{
				"KHR_materials_clearcoat":{
					"clearcoatFactor":0.10000000149011612,
					"clearcoatRoughnessFactor":0.20000000298023224
				},
				"KHR_materials_specular":{
					"specularFactor":0.800000011920929
				}
			},
			"name":"Material #233",
			"pbrMetallicRoughness":{
				"baseColorFactor":[
					0.01032975409179926,
					0.010329831391572952,
					0.01032982673496008,
					1
				],
				"metallicFactor":0,
				"roughnessFactor":0.30000001192092896
			}
		},
		{
			"doubleSided":true,
			"name":"Material #290",
			"pbrMetallicRoughness":{
				"baseColorFactor":[
					0.1144346371293068,
					0.11443548649549484,
					0.11443544179201126,
					1
				],
				"roughnessFactor":0.3365086615085602
			}
		}
	],
	"meshes":[
		{
			"name":"Object104.001",
			"primitives":[
				{
					"attributes":{
						"POSITION":0,
						"NORMAL":1
					},
					"indices":2,
					"material":0
				}
			]
		},
		{
			"name":"Layer:067.001",
			"primitives":[
				{
					"attributes":{
						"POSITION":3,
						"NORMAL":4
					},
					"indices":5,
					"material":1
				},
				{
					"attributes":{
						"POSITION":6,
						"NORMAL":7
					},
					"indices":8,
					"material":2
				}
			]
		}
	],
	"accessors":[
		{
			"bufferView":0,
			"componentType":5126,
			"count":48,
			"max":[
				-116.56959533691406,
				1381.799560546875,
				706.6156005859375
			],
			"min":[
				-138.79554748535156,
				5.9393768310546875,
				83.88887023925781
			],
			"type":"VEC3"
		},
		{
			"bufferView":1,
			"componentType":5126,
			"count":48,
			"type":"VEC3"
		},
		{
			"bufferView":2,
			"componentType":5123,
			"count":72,
			"type":"SCALAR"
		},
		{
			"bufferView":3,
			"componentType":5126,
			"count":280194,
			"max":[
				-16.849632263183594,
				1407.3416748046875,
				730.1607666015625
			],
			"min":[
				-99.39970397949219,
				-116.87515258789062,
				-32.668453216552734
			],
			"type":"VEC3"
		},
		{
			"bufferView":4,
			"componentType":5126,
			"count":280194,
			"type":"VEC3"
		},
		{
			"bufferView":5,
			"componentType":5125,
			"count":930900,
			"type":"SCALAR"
		},
		{
			"bufferView":6,
			"componentType":5126,
			"count":15221,
			"max":[
				-64.47472381591797,
				1340.789306640625,
				663.6083374023438
			],
			"min":[
				-87.71574401855469,
				-50.322723388671875,
				33.883995056152344
			],
			"type":"VEC3"
		},
		{
			"bufferView":7,
			"componentType":5126,
			"count":15221,
			"type":"VEC3"
		},
		{
			"bufferView":8,
			"componentType":5123,
			"count":46776,
			"type":"SCALAR"
		}
	],
	"bufferViews":[
		{
			"buffer":0,
			"byteLength":576,
			"byteOffset":0,
			"target":34962
		},
		{
			"buffer":0,
			"byteLength":576,
			"byteOffset":576,
			"target":34962
		},
		{
			"buffer":0,
			"byteLength":144,
			"byteOffset":1152,
			"target":34963
		},
		{
			"buffer":0,
			"byteLength":3362328,
			"byteOffset":1296,
			"target":34962
		},
		{
			"buffer":0,
			"byteLength":3362328,
			"byteOffset":3363624,
			"target":34962
		},
		{
			"buffer":0,
			"byteLength":3723600,
			"byteOffset":6725952,
			"target":34963
		},
		{
			"buffer":0,
			"byteLength":182652,
			"byteOffset":10449552,
			"target":34962
		},
		{
			"buffer":0,
			"byteLength":182652,
			"byteOffset":10632204,
			"target":34962
		},
		{
			"buffer":0,
			"byteLength":93552,
			"byteOffset":10814856,
			"target":34963
		}
	],
	"buffers":[
		{
			"byteLength":10908408,
			"uri":"HighFixWindow_DoubleGlazing.bin"
		}
	]
}
