{
	"asset":{
		"generator":"Khronos glTF Blender I/O v4.4.55",
		"version":"2.0"
	},
	"extensionsUsed":[
		"KHR_materials_clearcoat",
		"KHR_materials_transmission",
		"KHR_materials_specular",
		"KHR_materials_ior"
	],
	"scene":0,
	"scenes":[
		{
			"name":"Scene",
			"nodes":[
				0,
				2,
				4,
				6
			]
		}
	],
	"nodes":[
		{
			"name":"WindowParent",
			"translation":[
				-0.7927769422531128,
				0,
				0.12073902785778046
			]
		},
		{
			"mesh":0,
			"name":"Layer:070",
			"scale":[
				0.0010000000474974513,
				0.0010000000474974513,
				0.0010000000474974513
			]
		},
		{
			"children":[
				1
			],
			"name":"Node_1",
			"rotation":[
				-0.7071068286895752,
				0,
				-0.7071068286895752,
				1.5454309831852697e-08
			],
			"scale":[
				-1.0000001192092896,
				-1.000000238418579,
				-1.0000001192092896
			],
			"translation":[
				0.5503984689712524,
				-0.3360351622104645,
				0.007801130414009094
			]
		},
		{
			"mesh":1,
			"name":"Object108",
			"scale":[
				0.0010000000474974513,
				0.0010000000474974513,
				0.0010000000474974513
			]
		},
		{
			"children":[
				3
			],
			"name":"Node_3",
			"rotation":[
				0,
				0.7071068286895752,
				0,
				0.7071067094802856
			],
			"translation":[
				-0.4046682119369507,
				-0.33706140518188477,
				-0.10241939127445221
			]
		},
		{
			"mesh":2,
			"name":"Object109",
			"scale":[
				0.0010000000474974513,
				0.0010000000474974513,
				0.0010000000474974513
			]
		},
		{
			"children":[
				5
			],
			"name":"Node_5",
			"rotation":[
				0,
				0.7071068286895752,
				0,
				0.7071067094802856
			],
			"translation":[
				-0.4046682119369507,
				-0.33706140518188477,
				-0.1214694082736969
			]
		}
	],
	"materials":[
		{
			"doubleSided":true,
			"name":"Material #290",
			"pbrMetallicRoughness":{
				"baseColorFactor":[
					0.1144346371293068,
					0.11443548649549484,
					0.11443544179201126,
					1
				],
				"roughnessFactor":0.3365086615085602
			}
		},
		{
			"doubleSided":true,
			"extensions":{
				"KHR_materials_clearcoat":{
					"clearcoatFactor":0.10000000149011612,
					"clearcoatRoughnessFactor":0.20000000298023224
				},
				"KHR_materials_specular":{
					"specularFactor":0.800000011920929
				}
			},
			"name":"Material #233",
			"pbrMetallicRoughness":{
				"baseColorFactor":[
					0.01032975409179926,
					0.010329831391572952,
					0.01032982673496008,
					1
				],
				"metallicFactor":0,
				"roughnessFactor":0.30000001192092896
			}
		},
		{
			"alphaMode":"BLEND",
			"doubleSided":true,
			"extensions":{
				"KHR_materials_transmission":{
					"transmissionFactor":1
				},
				"KHR_materials_ior":{
					"ior":1.4500000476837158
				}
			},
			"name":"Material #245",
			"pbrMetallicRoughness":{
				"baseColorFactor":[
					1,
					1,
					1,
					0.17824773490428925
				],
				"metallicFactor":0,
				"roughnessFactor":0
			}
		}
	],
	"meshes":[
		{
			"name":"Layer:070",
			"primitives":[
				{
					"attributes":{
						"POSITION":0,
						"NORMAL":1
					},
					"indices":2,
					"material":0
				},
				{
					"attributes":{
						"POSITION":3,
						"NORMAL":4
					},
					"indices":5,
					"material":1
				}
			]
		},
		{
			"name":"Object108",
			"primitives":[
				{
					"attributes":{
						"POSITION":6,
						"NORMAL":7
					},
					"indices":8,
					"material":2
				}
			]
		},
		{
			"name":"Object109",
			"primitives":[
				{
					"attributes":{
						"POSITION":9,
						"NORMAL":10
					},
					"indices":8,
					"material":2
				}
			]
		}
	],
	"accessors":[
		{
			"bufferView":0,
			"componentType":5126,
			"count":15517,
			"max":[
				-6.350006103515625,
				1383.9482421875,
				874.3529052734375
			],
			"min":[
				-29.591018676757812,
				-68.84754943847656,
				184.09239196777344
			],
			"type":"VEC3"
		},
		{
			"bufferView":1,
			"componentType":5126,
			"count":15517,
			"type":"VEC3"
		},
		{
			"bufferView":2,
			"componentType":5123,
			"count":46824,
			"type":"SCALAR"
		},
		{
			"bufferView":3,
			"componentType":5126,
			"count":266657,
			"max":[
				41.275001525878906,
				1419.88916015625,
				910.2938842773438
			],
			"min":[
				-41.275062561035156,
				-104.78845977783203,
				148.1514434814453
			],
			"type":"VEC3"
		},
		{
			"bufferView":4,
			"componentType":5126,
			"count":266657,
			"type":"VEC3"
		},
		{
			"bufferView":5,
			"componentType":5125,
			"count":887160,
			"type":"SCALAR"
		},
		{
			"bufferView":6,
			"componentType":5126,
			"count":24,
			"max":[
				-135.62042236328125,
				1381.799560546875,
				767.7992553710938
			],
			"min":[
				-138.79554748535156,
				-64.64591979980469,
				83.88888549804688
			],
			"type":"VEC3"
		},
		{
			"bufferView":7,
			"componentType":5126,
			"count":24,
			"type":"VEC3"
		},
		{
			"bufferView":8,
			"componentType":5123,
			"count":36,
			"type":"SCALAR"
		},
		{
			"bufferView":9,
			"componentType":5126,
			"count":24,
			"max":[
				-135.62042236328125,
				1381.799560546875,
				767.7992553710938
			],
			"min":[
				-138.79554748535156,
				-64.64591979980469,
				83.88888549804688
			],
			"type":"VEC3"
		},
		{
			"bufferView":10,
			"componentType":5126,
			"count":24,
			"type":"VEC3"
		}
	],
	"bufferViews":[
		{
			"buffer":0,
			"byteLength":186204,
			"byteOffset":0,
			"target":34962
		},
		{
			"buffer":0,
			"byteLength":186204,
			"byteOffset":186204,
			"target":34962
		},
		{
			"buffer":0,
			"byteLength":93648,
			"byteOffset":372408,
			"target":34963
		},
		{
			"buffer":0,
			"byteLength":3199884,
			"byteOffset":466056,
			"target":34962
		},
		{
			"buffer":0,
			"byteLength":3199884,
			"byteOffset":3665940,
			"target":34962
		},
		{
			"buffer":0,
			"byteLength":3548640,
			"byteOffset":6865824,
			"target":34963
		},
		{
			"buffer":0,
			"byteLength":288,
			"byteOffset":10414464,
			"target":34962
		},
		{
			"buffer":0,
			"byteLength":288,
			"byteOffset":10414752,
			"target":34962
		},
		{
			"buffer":0,
			"byteLength":72,
			"byteOffset":10415040,
			"target":34963
		},
		{
			"buffer":0,
			"byteLength":288,
			"byteOffset":10415112,
			"target":34962
		},
		{
			"buffer":0,
			"byteLength":288,
			"byteOffset":10415400,
			"target":34962
		}
	],
	"buffers":[
		{
			"byteLength":10415688,
			"uri":"PictureWindow_Model_1.bin"
		}
	]
}
